<?xml version="1.0" standalone="no"?>
<!DOCTYPE svg PUBLIC "-//W3C//DTD SVG 20010904//EN"
 "http://www.w3.org/TR/2001/REC-SVG-20010904/DTD/svg10.dtd">
<svg version="1.0" xmlns="http://www.w3.org/2000/svg"
 width="260.000000pt" height="260.000000pt" viewBox="0 0 260.000000 260.000000"
 preserveAspectRatio="xMidYMid meet">
<metadata>
Created by potrace 1.11, written by Peter Selinger 2001-2013
</metadata>
<g transform="translate(0.000000,260.000000) scale(0.100000,-0.100000)"
fill="#000000" stroke="none">
<path d="M1113 2444 c-243 -41 -449 -149 -628 -329 -225 -224 -331 -470 -340
-785 -4 -148 9 -258 39 -348 8 -23 13 -42 11 -42 -8 0 63 -159 99 -224 151
-270 446 -488 751 -557 28 -6 59 -13 70 -16 53 -13 305 -11 385 3 377 67 700
314 860 658 111 239 135 484 75 778 -9 46 -56 169 -88 233 -56 113 -121 200
-221 300 -110 110 -204 177 -330 235 -108 50 -155 65 -301 95 -64 13 -301 13
-382 -1z m304 -373 c313 -45 564 -272 649 -586 25 -93 25 -292 0 -383 -81
-296 -312 -514 -611 -577 -66 -14 -231 -14 -300 1 -242 51 -446 206 -552 419
-25 49 -61 153 -70 203 -14 72 -8 264 11 337 101 391 475 642 873 586z"/>
</g>
</svg>
